<svg width="91" height="85" viewBox="0 0 91 85" fill="none" xmlns="http://www.w3.org/2000/svg">
<path d="M89.4833 21.25C88.2766 21.25 87.1193 20.7702 86.266 19.9163C85.4127 19.0623 84.9333 17.9041 84.9333 16.6964C84.9333 16.2939 84.7735 15.9078 84.4891 15.6231C84.2047 15.3385 83.8189 15.1786 83.4166 15.1786C83.0144 15.1786 82.6286 15.3385 82.3442 15.6231C82.0598 15.9078 81.9 16.2939 81.9 16.6964C81.9 17.9041 81.4206 19.0623 80.5673 19.9163C79.714 20.7702 78.5567 21.25 77.35 21.25C76.9477 21.25 76.562 21.4099 76.2775 21.6946C75.9931 21.9792 75.8333 22.3653 75.8333 22.7678C75.8333 23.1704 75.9931 23.5565 76.2775 23.8411C76.562 24.1258 76.9477 24.2857 77.35 24.2857C78.5567 24.2857 79.714 24.7654 80.5673 25.6194C81.4206 26.4734 81.9 27.6316 81.9 28.8393C81.9 29.2418 82.0598 29.6279 82.3442 29.9126C82.6286 30.1972 83.0144 30.3571 83.4166 30.3571C83.8189 30.3571 84.2047 30.1972 84.4891 29.9126C84.7735 29.6279 84.9333 29.2418 84.9333 28.8393C84.9333 27.6316 85.4127 26.4734 86.266 25.6194C87.1193 24.7654 88.2766 24.2857 89.4833 24.2857C89.8856 24.2857 90.2713 24.1258 90.5558 23.8411C90.8402 23.5565 91 23.1704 91 22.7678C91 22.3653 90.8402 21.9792 90.5558 21.6946C90.2713 21.4099 89.8856 21.25 89.4833 21.25ZM83.4166 24.2857C82.9852 23.7106 82.4746 23.1996 81.9 22.7678C82.4746 22.3361 82.9852 21.8251 83.4166 21.25C83.8481 21.8251 84.3587 22.3361 84.9333 22.7678C84.3587 23.1996 83.8481 23.7106 83.4166 24.2857V24.2857Z" fill="black"/>
<path d="M6.06667 65.2678C6.06667 65.6704 6.22646 66.0565 6.51089 66.3411C6.79532 66.6258 7.18109 66.7857 7.58333 66.7857C7.98558 66.7857 8.37135 66.6258 8.65578 66.3411C8.94021 66.0565 9.1 65.6704 9.1 65.2678C9.1 64.0601 9.57937 62.9019 10.4327 62.048C11.286 61.194 12.4433 60.7143 13.65 60.7143C14.0522 60.7143 14.438 60.5543 14.7224 60.2697C15.0069 59.985 15.1667 59.599 15.1667 59.1964C15.1667 58.7938 15.0069 58.4078 14.7224 58.1231C14.438 57.8385 14.0522 57.6785 13.65 57.6785C12.4433 57.6785 11.286 57.1988 10.4327 56.3448C9.57937 55.4909 9.1 54.3327 9.1 53.125C9.1 52.7224 8.94021 52.3363 8.65578 52.0517C8.37135 51.767 7.98558 51.6071 7.58333 51.6071C7.18109 51.6071 6.79532 51.767 6.51089 52.0517C6.22646 52.3363 6.06667 52.7224 6.06667 53.125C6.06667 54.3327 5.58729 55.4909 4.734 56.3448C3.88071 57.1988 2.7234 57.6785 1.51667 57.6785C1.11442 57.6785 0.728651 57.8385 0.444221 58.1231C0.159791 58.4078 0 58.7938 0 59.1964C0 59.599 0.159791 59.985 0.444221 60.2697C0.728651 60.5543 1.11442 60.7143 1.51667 60.7143C2.7234 60.7143 3.88071 61.194 4.734 62.048C5.58729 62.9019 6.06667 64.0601 6.06667 65.2678ZM7.58333 57.6785C8.01474 58.2536 8.52537 58.7647 9.1 59.1964C8.52537 59.6281 8.01474 60.1392 7.58333 60.7143C7.15193 60.1392 6.6413 59.6281 6.06667 59.1964C6.6413 58.7647 7.15193 58.2536 7.58333 57.6785V57.6785Z" fill="black"/>
<path d="M21.2333 66.7857H18.2V69.8214H21.2333V66.7857Z" fill="black"/>
<path d="M21.2333 72.8571H18.2V75.8928H21.2333V72.8571Z" fill="black"/>
<path d="M18.2 69.8214H15.1667V72.8571H18.2V69.8214Z" fill="black"/>
<path d="M24.2667 69.8214H21.2333V72.8571H24.2667V69.8214Z" fill="black"/>
<path d="M72.8 6.07141H69.7667V9.10712H72.8V6.07141Z" fill="black"/>
<path d="M72.8 12.1428H69.7667V15.1786H72.8V12.1428Z" fill="black"/>
<path d="M69.7667 9.10713H66.7333V12.1428H69.7667V9.10713Z" fill="black"/>
<path d="M75.8333 9.10713H72.8V12.1428H75.8333V9.10713Z" fill="black"/>
<path d="M23.8223 9.55186L14.7223 0.44472C14.5285 0.250778 14.2859 0.112987 14.0202 0.045991C13.7545 -0.0210049 13.4756 -0.0147031 13.2132 0.0642271C12.9507 0.143157 12.7146 0.291767 12.5298 0.494263C12.345 0.696759 12.2185 0.945577 12.1637 1.21427L10.8442 7.81695L4.24666 9.13749C3.97768 9.19148 3.72837 9.31749 3.52529 9.50207C3.3222 9.68665 3.17295 9.92291 3.09342 10.1857C3.01389 10.4484 3.00706 10.7279 3.07367 10.9942C3.14027 11.2605 3.27781 11.5038 3.47164 11.6981L12.5716 20.8052C12.7132 20.9469 12.8813 21.0592 13.0664 21.1355C13.2515 21.2118 13.4498 21.2507 13.65 21.25H17.833L21.7915 25.2116C21.3804 25.5303 20.9785 25.8597 20.5994 26.2103C18.8908 27.7324 17.5234 29.5991 16.5871 31.6878C15.6508 33.7764 15.1668 36.0397 15.1668 38.3289C15.1668 40.6181 15.6508 42.8814 16.5871 44.97C17.5234 47.0587 18.8908 48.9254 20.5994 50.4475L45.5 73.402L58.2248 61.6735L67.7525 71.2087L65.661 73.3018C65.4883 73.4747 65.3598 73.6868 65.2866 73.9201C65.2134 74.1533 65.1975 74.4008 65.2404 74.6415C65.2833 74.8822 65.3837 75.109 65.533 75.3026C65.6822 75.4961 65.876 75.6507 66.0978 75.7532L85.8145 84.8603C86.0962 84.9904 86.4109 85.0309 86.7164 84.9764C87.0218 84.9219 87.3031 84.775 87.5225 84.5554C87.7418 84.3359 87.8887 84.0543 87.9431 83.7487C87.9976 83.443 87.9571 83.128 87.8271 82.8461L78.7271 63.114C78.6247 62.892 78.4703 62.698 78.2769 62.5486C78.0835 62.3992 77.8569 62.2988 77.6164 62.2559C77.3759 62.213 77.1285 62.2288 76.8955 62.3021C76.6624 62.3754 76.4505 62.504 76.2777 62.6768L74.1862 64.77L64.9224 55.4989L70.4006 50.4475C72.1092 48.9254 73.4765 47.0587 74.4128 44.97C75.3492 42.8814 75.8332 40.6181 75.8332 38.3289C75.8332 36.0397 75.3492 33.7764 74.4128 31.6878C73.4765 29.5991 72.1092 27.7324 70.4006 26.2103C67.0027 23.183 62.6551 21.4385 58.1086 21.278C53.5622 21.1176 49.1025 22.5513 45.5 25.3315C43.448 23.7436 41.0995 22.5824 38.5926 21.9161C36.0856 21.2499 33.4709 21.092 30.9021 21.4519L24.2667 14.8112V10.625C24.2666 10.2225 24.1067 9.83645 23.8223 9.55186ZM7.62579 11.5569L12.4367 10.5946C12.73 10.5358 12.9995 10.3914 13.2111 10.1797C13.4227 9.9679 13.5669 9.69825 13.6257 9.40463L14.5873 4.59606L21.2333 11.2534V18.2143H14.2779L7.62579 11.5569ZM76.8844 66.3637L83.3484 80.3781L69.345 73.909L76.8844 66.3637ZM69.8971 69.0625L56.875 56.0301L59.0196 53.8839L72.0417 66.9162L69.8971 69.0625ZM44.4717 28.4416L45.5 29.3887L46.5283 28.4416C49.5317 25.7639 53.4138 24.2843 57.4362 24.2843C61.4585 24.2843 65.3406 25.7639 68.344 28.4416C69.7447 29.6793 70.8663 31.201 71.6346 32.9056C72.4029 34.6103 72.8002 36.4589 72.8002 38.3289C72.8002 40.1989 72.4029 42.0475 71.6346 43.7522C70.8663 45.4568 69.7447 46.9785 68.344 48.2162L62.7763 53.3496L60.0918 50.6645C59.8074 50.38 59.4217 50.2201 59.0196 50.2201C58.6174 50.2201 58.2317 50.38 57.9473 50.6645L53.6581 54.957C53.3738 55.2417 53.2141 55.6277 53.2141 56.0301C53.2141 56.4326 53.3738 56.8186 53.6581 57.1033L56.0772 59.5242L45.5 69.2765L22.6544 48.2162C21.2542 46.9782 20.1329 45.4565 19.365 43.7519C18.597 42.0473 18.1998 40.1988 18.1998 38.3289C18.1998 36.459 18.597 34.6105 19.365 32.9059C20.1329 31.2013 21.2542 29.6796 22.6544 28.4416C23.0693 28.0636 23.5048 27.7089 23.9588 27.3791L29.3915 32.816C29.6759 33.1006 30.0616 33.2605 30.4638 33.2605C30.8659 33.2605 31.2516 33.1006 31.536 32.816L35.8252 28.5235C36.1095 28.2389 36.2692 27.8529 36.2692 27.4504C36.2692 27.0479 36.1095 26.6619 35.8252 26.3773L33.761 24.313C37.7169 24.3248 41.5299 25.7946 44.4717 28.4416V28.4416ZM32.6083 27.4519L30.4638 29.5982L22.1221 21.25H22.75C23.1522 21.25 23.538 21.0901 23.8224 20.8054C24.1069 20.5208 24.2667 20.1347 24.2667 19.7321V19.1037L32.6083 27.4519Z" fill="black"/>
</svg>
