<svg width="82" height="96" viewBox="0 0 82 96" fill="none" xmlns="http://www.w3.org/2000/svg">
<path d="M81.3 14C72.5 7.2 59.5 5.7 54.6 5.3V3.4C54.6 2.3 53.7 1.5 52.7 1.5C51.6 1.5 50.8 2.4 50.8 3.4V48.6C47.8 46.6 44.3 43.4 43.6 39.7C42.3 32.4 39.9 28.1 36.3 26.4C35.9 26.2 35.5 26.1 35.1 26C34.9 23.4 34.7 20.9 34.6 18.7L34.2 10.6C33.9 4.9 29.2 0.5 23.5 0.5C17.8 0.5 13.2 4.9 12.9 10.6L12.5 18.7C12.4 20.9 12.2 23.4 12 26C11.7 26.1 11.3 26.2 11 26.4C7.4 28 5 32.4 3.7 39.7C2 48.6 0.400002 55.8 0.300002 55.9C-0.199998 58.2 1.2 60.5 3.6 61C3.9 61.1 4.2 61.1 4.5 61.1C5.1 61.1 5.6 61 6.1 60.8V63.9C6 64.8 5.8 65.6 5.7 66.5L3 89.9C2.7 92.8 4.9 95.3 7.8 95.3H39C41.9 95.3 44.1 92.8 43.8 89.9L41.1 66.5C41 65.6 40.9 64.8 40.7 63.9V51.5C44.7 55.6 49.5 57.9 50.7 58.4V93.5C50.7 94.6 51.6 95.4 52.6 95.4C53.7 95.4 54.5 94.5 54.5 93.5V58.4C55.4 58 56.1 57.3 56.5 56.3C57.4 54.2 56.5 51.8 54.5 50.8V16.5C58.8 15.6 69.5 13.8 80.3 15.9C81.6 16.2 82.3 14.7 81.3 14ZM28.4 14.6C27.9 15.4 27.6 16.2 27.6 17.1V17.2C27.6 19.5 25.8 21.3 23.5 21.3C21.2 21.3 19.4 19.5 19.4 17.2C19.4 16.3 19.1 15.4 18.6 14.6C18 13.7 17.6 12.6 17.6 11.4C17.6 8.2 20.2 5.6 23.5 5.6C26.8 5.6 29.4 8.2 29.4 11.4C29.4 12.6 29 13.7 28.4 14.6Z" fill="black"/>
</svg>
