<svg xmlns="http://www.w3.org/2000/svg" viewBox="0 0 48 60" x="0px" y="0px"><title>everyday icon vol.1</title><g><path d="M47.022,30.86212c-.00293-.00989.0008-.02026-.00244-.03009L42.38165,16.68481,47.01758,2.88916a1.001,1.001,0,0,0-.94824-1.31836H8.01172a.99984.99984,0,0,0-.9502.68848L2.37793,16.54541c-.00324.00983.00049.02026-.00244.03015a.9877.9877,0,0,0-.03369.41644c.00219.0163.00677.03083.00976.047a.98421.98421,0,0,0,.02832.13629L7.01581,30.97137,2.37793,45.11816a1,1,0,0,0,.9502,1.31153H41.26855a1.00027,1.00027,0,0,0,.94825-.68164l4.80078-14.28614a.98278.98278,0,0,0,.02838-.13641c.003-.01611.00751-.03058.0097-.04681A.98854.98854,0,0,0,47.022,30.86212ZM8.73633,3.5708H44.67871L40.5498,15.85693H4.708Zm31.9248,14.28613,4.02832,12.28662H8.84766L4.71875,17.85693ZM40.5498,44.42969H4.708L8.73633,32.14355H44.67871Z"/></g><text x="0" y="63" fill="#000000" font-size="5px" font-weight="bold" font-family="'Helvetica Neue', Helvetica, Arial-Unicode, Arial, Sans-serif">Created by Mega Agustina</text><text x="0" y="68" fill="#000000" font-size="5px" font-weight="bold" font-family="'Helvetica Neue', Helvetica, Arial-Unicode, Arial, Sans-serif">from the Noun Project</text></svg>