<svg xmlns="http://www.w3.org/2000/svg" viewBox="0 0 46 85" x="0px" y="0px"><path fill="#000000" d="M453.585786,95.5857864 C451.700168,97.4714045 454.528595,100.299832 456.414214,98.4142136 L458.5,96.3284271 L460.585786,98.4142136 C462.471405,100.299832 465.299832,97.4714045 463.414214,95.5857864 L461.328427,93.5 L463.414214,91.4142136 C465.299832,89.5285955 462.471405,86.7001684 460.585786,88.5857864 L458.5,90.6715729 L456.414214,88.5857864 C454.528595,86.7001684 451.700168,89.5285955 453.585786,91.4142136 L455.671573,93.5 L453.585786,95.5857864 Z M436.585786,95.5857864 C434.700168,97.4714045 437.528595,100.299832 439.414214,98.4142136 L441.5,96.3284271 L443.585786,98.4142136 C445.471405,100.299832 448.299832,97.4714045 446.414214,95.5857864 L444.328427,93.5 L446.414214,91.4142136 C448.299832,89.5285955 445.471405,86.7001684 443.585786,88.5857864 L441.5,90.6715729 L439.414214,88.5857864 C437.528595,86.7001684 434.700168,89.5285955 436.585786,91.4142136 L438.671573,93.5 L436.585786,95.5857864 Z M450,124 C437.297451,124 427,113.702549 427,101 C427,88.2974508 437.297451,78 450,78 C462.702549,78 473,88.2974508 473,101 C473,113.702549 462.702549,124 450,124 Z M437.10452,114.361369 C436.752114,115.408213 437.315068,116.54253 438.361912,116.894937 C439.408757,117.247343 440.543074,116.684389 440.89548,115.637544 C441.863798,112.761095 445.626988,109.999457 450,109.999457 C454.373012,109.999457 458.136202,112.761095 459.10452,115.637544 C459.456926,116.684389 460.591243,117.247343 461.638088,116.894937 C462.684932,116.54253 463.247886,115.408213 462.89548,114.361369 C461.384338,109.872426 456.106774,105.999457 450,105.999457 C443.893226,105.999457 438.615662,109.872426 437.10452,114.361369 Z M450,76 C444.477153,76 440,71.5228475 440,66 C440,60.4771525 444.477153,56 450,56 C455.522847,56 460,60.4771525 460,66 C460,71.5228475 455.522847,76 450,76 Z" transform="translate(-427 -56)"/><text x="0" y="83" fill="#000000" font-size="5px" font-weight="bold" font-family="'Helvetica Neue', Helvetica, Arial-Unicode, Arial, Sans-serif">Created by Andrejs Kirma</text><text x="0" y="88" fill="#000000" font-size="5px" font-weight="bold" font-family="'Helvetica Neue', Helvetica, Arial-Unicode, Arial, Sans-serif">from the Noun Project</text></svg>