<svg xmlns="http://www.w3.org/2000/svg" xmlns:xlink="http://www.w3.org/1999/xlink" version="1.1" x="0px" y="0px" viewBox="0 0 100 125" enable-background="new 0 0 100 100" xml:space="preserve"><path fill="#000000" d="M63.475,36.861v-0.899c-0.199,0.213-0.41,0.427-0.632,0.638C63.033,36.686,63.248,36.777,63.475,36.861z   M60.949,25.962v0.19h2.093v-0.19H60.949z M60.949,28.833v0.191h2.093v-0.191H60.949z M60.949,27.42v0.192h2.093V27.42H60.949z   M60.951,52.458v0.653h2.092v-0.653H60.951z M60.949,51.031v0.189h2.093v-0.189H60.949z M60.949,49.619v0.191h2.093v-0.191H60.949z   M60.949,41.203v0.19h2.093v-0.19H60.949z M60.949,39.791v0.191h2.093v-0.191H60.949z M63.466,34.507l0.086-0.111  c-0.196-0.087-0.397-0.173-0.601-0.263v0.678l0.164,0.118c0.101-0.119,0.197-0.236,0.289-0.355  C63.424,34.549,63.445,34.526,63.466,34.507z M63.402,35.687l0.086-0.095c0.168-0.189,0.326-0.379,0.479-0.574  c3.799-4.845,1.445-9.798-1.016-10.518v0.509c1.977,0.768,4.259,5.105,0.637,9.719c-0.145,0.183-0.296,0.365-0.46,0.55l-0.114,0.127  c-0.218,0.239-0.453,0.479-0.707,0.718c0.146,0.076,0.26,0.203,0.305,0.368C62.902,36.216,63.162,35.951,63.402,35.687z   M63.875,35.51c0.023,0.042,0.045,0.092,0.045,0.114v1.388c0.938,0.295,1.93,0.407,2.121-0.313c0.207-0.771-0.542-1.354-1.629-1.901  c-0.061,0.084-0.123,0.169-0.188,0.254c-0.019,0.037-0.041,0.075-0.068,0.11C64.066,35.279,63.971,35.394,63.875,35.51z   M61.738,24.195c0.592-0.325,1.096-0.781,1.461-1.324v-4.183c-0.364-0.546-0.865-1.001-1.461-1.322V24.195z M61.04,30.344  c-0.63-0.779-1.431-0.504-1.251,0.557c0.082,0.493,0.568,0.904,1.251,1.288V30.344z M64.105,33.583  c2.482-4.066,0.414-7.713-1.156-8.326v0.259h0.252c0.158,0,0.287,0.129,0.287,0.287v0.509c0,0.158-0.129,0.286-0.287,0.286h-0.252  v0.377h0.252c0.158,0,0.287,0.127,0.287,0.287v0.509c0,0.158-0.129,0.286-0.287,0.286h-0.252v0.33h0.252  c0.158,0,0.287,0.128,0.287,0.287v0.51c0,0.159-0.129,0.287-0.287,0.287h-0.252v3.608C63.334,33.241,63.725,33.408,64.105,33.583z   M62.949,33.87c0.254,0.108,0.504,0.217,0.75,0.326c0.1-0.136,0.191-0.271,0.279-0.406c-0.193-0.085-0.375-0.163-0.533-0.232  c-0.137-0.059-0.305-0.128-0.494-0.208c-0.545-0.225-1.27-0.529-1.91-0.896c-0.752-0.429-1.391-0.943-1.484-1.511  c-0.283-1.666,1.603-1.901,2.23,0.422c0.084,0.308,0.545,0.183,0.461-0.125c-0.807-2.979-3.54-2.435-3.164-0.218  c0.139,0.816,0.938,1.432,1.957,1.969C61.631,33.305,62.296,33.588,62.949,33.87z M62.212,37.359  c-0.067,0.023-0.14,0.035-0.218,0.035c-0.37,0-0.672-0.301-0.672-0.673s0.301-0.673,0.672-0.673l0.043,0.001  c0.281-0.261,0.541-0.523,0.781-0.784l-0.08-0.057h-1.629l-0.736,0.53v2.019l0.736,0.53h1.629l0.625-0.451  C62.932,37.687,62.529,37.513,62.212,37.359z M62.667,36.781c-0.017,0.169-0.093,0.321-0.21,0.43  c0.298,0.138,0.646,0.284,1.018,0.409c0.108,0.037,0.219,0.072,0.332,0.105c0.187,0.054,0.375,0.102,0.562,0.139  c0.014,0.003,0.026,0.004,0.039,0.005c1.047,0.199,2.047,0.064,2.327-0.986c0.332-1.246-0.791-2.107-1.916-2.696  c-0.084,0.137-0.172,0.274-0.268,0.411c1.154,0.59,1.965,1.247,1.721,2.161c-0.192,0.722-0.946,0.805-1.774,0.646  c-0.013-0.004-0.022-0.007-0.036-0.011c-0.229-0.044-0.459-0.107-0.688-0.179c-0.103-0.032-0.2-0.066-0.299-0.102  C63.18,37.008,62.902,36.891,62.667,36.781z M61.04,33.256c-1.123-0.586-2.034-1.272-2.192-2.203  c-0.234-1.402,0.666-2.231,1.657-2.096v-0.284c0-0.159,0.128-0.287,0.286-0.287h0.25v-0.33h-0.25c-0.158,0-0.286-0.128-0.286-0.286  v-0.509c0-0.159,0.128-0.287,0.286-0.287h0.25v-0.377h-0.25c-0.158,0-0.286-0.128-0.286-0.286v-0.509  c0-0.158,0.128-0.287,0.286-0.287h0.25V25.43v-9.276h0.697v0.501c1.615,0.731,2.74,2.301,2.74,4.135c0,1.332-0.59,2.523-1.527,3.355  v0.078v0.023c2.531,0.696,4.697,5.145,1.986,9.743c1.367,0.73,2.381,1.625,2.025,2.953c-0.37,1.386-1.775,1.398-3.093,1.045  c-0.004,0.026-0.032,0.052-0.043,0.061l-0.877,0.631v0.662h0.25c0.157,0,0.286,0.129,0.286,0.287v0.51  c0,0.158-0.129,0.287-0.286,0.287h-0.252v0.33H63.2c0.157,0,0.286,0.129,0.286,0.287v0.509c0,0.159-0.129,0.287-0.286,0.287h-0.252  v7.333H63.2c0.157,0,0.286,0.129,0.286,0.288v0.51c0,0.156-0.129,0.285-0.286,0.285h-0.252v0.327H63.2  c0.157,0,0.286,0.129,0.286,0.288v0.508c0,0.159-0.129,0.286-0.286,0.286h-0.252v0.347H63.2c0.157,0,0.286,0.129,0.286,0.286v0.972  c0,0.158-0.129,0.285-0.286,0.285h-0.252v0.29h-0.478v1.001c-0.338-0.104-0.662-0.104-0.955-0.021v-0.979H61.04v-0.289h-0.249  c-0.158,0-0.286-0.127-0.286-0.287v-0.973c0-0.156,0.129-0.286,0.286-0.286h0.249v-0.347h-0.249c-0.158,0-0.286-0.127-0.286-0.285  V50.87c0-0.159,0.128-0.288,0.286-0.288h0.249v-0.328h-0.249c-0.158,0-0.286-0.129-0.286-0.286v-0.51  c0-0.159,0.128-0.288,0.286-0.288h0.249l-0.003-7.333h-0.246c-0.158,0-0.286-0.128-0.286-0.287v-0.509  c0-0.158,0.128-0.287,0.286-0.287h0.246v-0.329h-0.246c-0.158,0-0.286-0.129-0.286-0.287v-0.51c0-0.158,0.128-0.287,0.286-0.287  h0.246v-0.613c-0.069,0-0.12-0.034-0.131-0.042l-0.885-0.64c-0.076-0.064-0.094-0.145-0.094-0.181v-2.246  c0-0.037,0.021-0.127,0.094-0.182l0.885-0.639c0.045-0.032,0.119-0.042,0.135-0.042L61.04,33.256L61.04,33.256z M34.234,36.861  c0.226-0.084,0.44-0.175,0.631-0.261c-0.223-0.212-0.433-0.425-0.631-0.638V36.861z M34.242,34.507  c0.021,0.02,0.043,0.042,0.063,0.067c0.093,0.117,0.188,0.236,0.29,0.355l0.164-0.118v-0.677c-0.203,0.087-0.404,0.174-0.601,0.262  L34.242,34.507z M36.758,39.791h-2.092v0.191h2.092V39.791z M36.758,41.203h-2.092v0.19h2.092V41.203z M36.758,49.619h-2.092v0.191  h2.092V49.619z M36.758,51.031h-2.092v0.189h2.092V51.031z M36.758,52.458h-2.092v0.653h2.092V52.458z M36.758,27.42h-2.092v0.192  h2.092V27.42z M36.758,28.833h-2.092v0.191h2.092V28.833z M36.758,25.962h-2.092v0.19h2.092V25.962z M33.833,35.51  c-0.097-0.116-0.19-0.23-0.28-0.346c-0.029-0.037-0.052-0.074-0.068-0.11c-0.064-0.085-0.127-0.17-0.188-0.254  c-1.086,0.545-1.836,1.126-1.63,1.901c0.193,0.719,1.183,0.608,2.121,0.314v-1.389C33.788,35.602,33.81,35.552,33.833,35.51z   M34.306,35.687c0.239,0.265,0.498,0.529,0.778,0.792c0.059-0.153,0.173-0.28,0.319-0.356c-0.253-0.238-0.488-0.479-0.707-0.718  l-0.115-0.128c-0.163-0.184-0.316-0.366-0.459-0.55c-3.621-4.614-1.337-8.951,0.638-9.719V24.5  c-2.463,0.72-4.815,5.673-1.016,10.518c0.152,0.194,0.311,0.385,0.479,0.574L34.306,35.687z M35.041,36.781  c-0.235,0.109-0.513,0.227-0.808,0.334c-0.098,0.035-0.198,0.069-0.299,0.102c-0.227,0.073-0.459,0.135-0.687,0.18  c-0.013,0.002-0.025,0.006-0.037,0.01c-0.826,0.159-1.582,0.075-1.775-0.646C31.191,35.847,32,35.19,33.156,34.6  c-0.093-0.137-0.182-0.273-0.267-0.411c-1.125,0.588-2.249,1.451-1.915,2.697c0.28,1.05,1.28,1.184,2.327,0.985  c0.014,0,0.026-0.002,0.039-0.005c0.187-0.037,0.375-0.084,0.562-0.139c0.111-0.033,0.222-0.068,0.33-0.105  c0.371-0.125,0.72-0.271,1.018-0.409C35.134,37.102,35.057,36.951,35.041,36.781z M35.496,37.359  c-0.316,0.153-0.72,0.328-1.151,0.477l0.625,0.451h1.63l0.735-0.53v-2.019l-0.735-0.53h-1.63l-0.079,0.057  c0.239,0.261,0.498,0.522,0.78,0.784l0.042-0.001c0.373,0,0.674,0.301,0.674,0.673c0,0.373-0.301,0.673-0.674,0.673  C35.637,37.394,35.564,37.382,35.496,37.359z M34.758,33.87c0.654-0.282,1.319-0.566,1.911-0.877  c1.02-0.538,1.818-1.154,1.957-1.969c0.377-2.217-2.356-2.764-3.164,0.218c-0.083,0.307,0.377,0.432,0.46,0.125  c0.63-2.323,2.515-2.087,2.232-0.422c-0.098,0.569-0.733,1.082-1.486,1.511c-0.642,0.366-1.367,0.672-1.911,0.896  c-0.192,0.08-0.36,0.148-0.494,0.208c-0.159,0.069-0.34,0.146-0.534,0.232c0.087,0.135,0.181,0.27,0.279,0.407  C34.253,34.088,34.505,33.979,34.758,33.87z M33.602,33.583c0.38-0.174,0.771-0.342,1.155-0.507v-3.607h-0.251  c-0.158,0-0.287-0.128-0.287-0.287v-0.51c0-0.159,0.129-0.287,0.287-0.287h0.251v-0.329h-0.251c-0.158,0-0.287-0.128-0.287-0.286  v-0.509c0-0.159,0.129-0.287,0.287-0.287h0.251v-0.377h-0.251c-0.158,0-0.287-0.128-0.287-0.286v-0.509  c0-0.158,0.129-0.287,0.287-0.287h0.251v-0.259C33.19,25.87,31.119,29.518,33.602,33.583z M36.668,30.344v1.843  c0.682-0.383,1.167-0.794,1.251-1.288C38.097,29.839,37.297,29.565,36.668,30.344z M35.969,24.195v-6.829  c-0.594,0.321-1.095,0.776-1.46,1.322v4.183C34.875,23.414,35.378,23.87,35.969,24.195z M36.668,33.256v1.506  c0.017,0,0.072,0.006,0.134,0.042l0.887,0.64c0.073,0.053,0.092,0.146,0.092,0.182v2.246c0,0.069-0.027,0.132-0.092,0.181  l-0.887,0.64c-0.011,0.007-0.069,0.042-0.13,0.042v0.613h0.245c0.159,0,0.287,0.129,0.287,0.286v0.51  c0,0.158-0.129,0.287-0.287,0.287h-0.246v0.329h0.246c0.159,0,0.287,0.129,0.287,0.287v0.51c0,0.159-0.129,0.287-0.287,0.287h-0.246  l-0.001,7.332h0.247c0.159,0,0.287,0.129,0.287,0.288v0.51c0,0.157-0.129,0.286-0.287,0.286h-0.248v0.328h0.248  c0.159,0,0.287,0.129,0.287,0.288v0.507c0,0.158-0.129,0.285-0.287,0.285h-0.248v0.348h0.247c0.158,0,0.287,0.129,0.287,0.285v0.973  c0,0.16-0.129,0.287-0.287,0.287h-0.248v0.289H36.19v0.979c-0.287-0.079-0.604-0.083-0.932,0.014h-0.022V53.85h-0.478v-0.289h-0.251  c-0.158,0-0.287-0.127-0.287-0.287v-0.973c0-0.156,0.129-0.285,0.287-0.285h0.251v-0.348h-0.251c-0.158,0-0.287-0.127-0.287-0.285  v-0.507c0-0.159,0.129-0.288,0.287-0.288h0.251V50.26h-0.251c-0.158,0-0.287-0.129-0.287-0.286V49.46  c0-0.159,0.129-0.288,0.287-0.288h0.251v-7.333h-0.251c-0.158,0-0.287-0.128-0.287-0.287v-0.509c0-0.158,0.129-0.287,0.287-0.287  h0.251v-0.329h-0.251c-0.158,0-0.287-0.129-0.287-0.287v-0.51c0-0.158,0.129-0.287,0.287-0.287h0.251v-0.662l-0.876-0.631  c-0.011-0.008-0.028-0.033-0.044-0.061c-1.315,0.354-2.721,0.34-3.093-1.045c-0.354-1.328,0.659-2.224,2.026-2.953  c-2.711-4.598-0.543-9.046,1.987-9.742v-0.024v-0.078c-0.939-0.833-1.527-2.023-1.527-3.355c0-1.834,1.125-3.404,2.74-4.135v-0.501  h0.698v9.276v0.085h0.249c0.159,0,0.287,0.129,0.287,0.287v0.51c0,0.157-0.129,0.285-0.287,0.285h-0.249v0.377h0.249  c0.159,0,0.287,0.128,0.287,0.287v0.509c0,0.158-0.129,0.286-0.287,0.286h-0.249v0.33h0.249c0.159,0,0.287,0.128,0.287,0.287v0.284  c0.989-0.135,1.891,0.694,1.658,2.096C38.702,31.983,37.792,32.669,36.668,33.256z M55.227,67.764h-3.011v1.577h3.011V67.764z   M54.039,74.506h0.908v-1.217h-0.908V74.506z M54.039,72.654h1.554v-0.993h-1.554v0.478V72.654z M52.07,69.977  c-0.703,0-1.274,0.57-1.274,1.273v0.795v1.188c0,0.705,0.571,1.273,1.274,1.273h1.332v-2.369v-2.16h-0.174H52.07z M54.039,69.977  v1.049h0.908v-1.049H54.039z M49.75,95.936v0.576h1.934v-2.14L49.75,95.936z M54.057,75.146h-0.641V87.26h0.641V75.146z   M52.326,89.249h0.346v-1.976h-0.346V89.249z M54.342,95.596l0.001-4.475H52.32v4.475H54.342z M51.691,87.896h-0.309v1.853  l0.735,0.735h2.425l0.734-0.744l-0.008-1.844h-1.963v1.512c0,0.264-0.213,0.479-0.479,0.479h-0.663  c-0.265,0-0.478-0.215-0.478-0.479v-1.512H51.691z M57.66,96.512v-1.007l-2.682-2.161v3.168H57.66L57.66,96.512z M51.506,75.061  c-0.779-0.24-1.346-0.967-1.346-1.826V71.25c0-0.885,0.604-1.63,1.418-1.848v-1.641h-0.188c-0.425,0-0.425-0.638,0-0.638h4.66  c0.424,0,0.424,0.638,0,0.638h-0.188v1.895c0,0.156-0.127,0.298-0.28,0.316v1.049h0.265c0.211,0,0.381,0.172,0.381,0.383v1.502  c0,0.211-0.17,0.382-0.381,0.382h-0.265v1.474c0,0.213-0.171,0.381-0.382,0.381H55.01v12.119h0.584  c0.102,0.002,0.18,0.036,0.23,0.094c0.049,0.055,0.082,0.127,0.082,0.225l0.008,2.236c0,0.139-0.068,0.248-0.131,0.32l-0.803,0.811  l-0.002,1.578l3.16,2.547c0.147,0.123,0.157,0.26,0.156,0.328v1.437c-0.001,0.101-0.038,0.177-0.095,0.229  c-0.054,0.054-0.128,0.084-0.226,0.084h-8.545c-0.217,0-0.324-0.166-0.319-0.328v-1.036c0-0.108,0.042-0.188,0.114-0.252  l2.458-1.979v-2.601l-0.846-0.845c-0.077-0.08-0.094-0.193-0.094-0.227v-2.302c0-0.233,0.195-0.339,0.367-0.313  c0.018-0.002,0.033-0.004,0.051-0.004h0.341L51.506,75.061L51.506,75.061z M43.628,74.506v-1.217H42.72v1.217H43.628z   M43.628,72.654v-0.516V71.66h-1.554v0.992h1.554V72.654z M45.597,69.977h-1.158h-0.174v2.162v2.369h1.333  c0.704,0,1.273-0.57,1.273-1.273v-1.188v-0.795C46.871,70.547,46.301,69.977,45.597,69.977z M43.628,69.977H42.72v1.049h0.908  V69.977z M42.441,67.764v1.577h3.009v-1.577H42.441z M43.613,75.146V87.26h0.64V75.146H43.613z M45.341,87.273h-0.346v1.976h0.346  V87.273z M43.326,95.596h2.02v-4.475h-2.022L43.326,95.596z M45.978,87.896v1.512c0,0.264-0.214,0.479-0.478,0.479h-0.665  c-0.263,0-0.477-0.215-0.477-0.479v-1.512h-1.963l-0.006,1.844l0.735,0.744h2.425l0.734-0.735v-1.853H45.978z M40.008,96.512h2.682  l-0.001-3.168l-2.681,2.161V96.512z M47.917,95.936l-1.934-1.562v2.14h1.934V95.936z M46.161,75.061v12.201h0.34  c0.019,0,0.036,0.002,0.052,0.004c0.173-0.023,0.367,0.08,0.367,0.313v2.303c0,0.032-0.017,0.146-0.093,0.226l-0.845,0.846v2.604  l2.457,1.979c0.073,0.062,0.114,0.145,0.114,0.251v1.034c0.006,0.162-0.1,0.33-0.318,0.33h-8.547c-0.098,0-0.172-0.032-0.225-0.086  c-0.056-0.053-0.091-0.129-0.094-0.229v-1.438c-0.001-0.066,0.009-0.205,0.157-0.328l3.161-2.547l-0.001-1.576l-0.805-0.812  c-0.062-0.069-0.13-0.182-0.13-0.319l0.007-2.235c0-0.097,0.033-0.17,0.082-0.224c0.053-0.059,0.129-0.094,0.23-0.097h0.585V75.143  h-0.192c-0.211,0-0.382-0.168-0.382-0.381v-1.473h-0.264c-0.21,0-0.381-0.171-0.381-0.381v-1.502c0-0.211,0.171-0.383,0.381-0.383  h0.264v-1.049c-0.151-0.021-0.278-0.16-0.278-0.316v-1.896h-0.189c-0.425,0-0.425-0.637,0-0.637h4.659c0.425,0,0.425,0.637,0,0.637  h-0.189v1.641c0.817,0.219,1.42,0.963,1.42,1.849v1.983C47.508,74.094,46.942,74.82,46.161,75.061z M62.464,56.783  c0.121-0.271-0.001-0.588-0.272-0.709c-0.27-0.119-0.588,0.002-0.709,0.271c-0.119,0.271,0.002,0.588,0.272,0.709  C62.025,57.178,62.343,57.055,62.464,56.783z M63.363,56.092l1.166,3.042l-1.514,3.401l-2.768,1.154l-0.365-0.697l2.008-1.41  l0.963-2.163c0,0-1.916-1.81-1.953-1.847c-0.395-0.416-0.521-1.049-0.271-1.607c0.33-0.738,1.197-1.07,1.938-0.742  C62.96,55.396,63.21,55.697,63.363,56.092z M35.244,56.783c0.121,0.271,0.438,0.393,0.708,0.271  c0.271-0.121,0.392-0.438,0.272-0.709c-0.121-0.271-0.437-0.393-0.708-0.271S35.124,56.514,35.244,56.783z M34.345,56.092  c0.154-0.395,0.404-0.693,0.793-0.867c0.741-0.328,1.608,0.004,1.938,0.742c0.249,0.559,0.123,1.189-0.272,1.605  c-0.036,0.039-1.952,1.848-1.952,1.848l0.962,2.162l2.008,1.41l-0.365,0.697l-2.766-1.154l-1.515-3.401L34.345,56.092z   M60.189,56.656c0.021,0.421,0.191,0.826,0.482,1.136l0.145,0.138l-0.945,0.592l-1.117,2.187l-0.742-0.267l0.758-2.896  L60.189,56.656z M37.519,56.656l1.418,0.887l0.758,2.898l-0.742,0.265l-1.118-2.185l-0.946-0.592l0.145-0.14  C37.326,57.482,37.497,57.077,37.519,56.656z M56.057,59.291c0.426,0,0.426,0.637,0,0.637h-4.654c-0.426,0-0.426-0.637,0-0.637  H56.057z M56.057,60.075c0.426,0,0.426,0.637,0,0.637h-4.654c-0.426,0-0.426-0.637,0-0.637H56.057z M56.057,60.857  c0.426,0,0.426,0.638,0,0.638h-4.654c-0.426,0-0.426-0.638,0-0.638H56.057z M56.057,61.641c0.426,0,0.426,0.637,0,0.637h-4.654  c-0.426,0-0.426-0.637,0-0.637H56.057z M56.057,62.424c0.426,0,0.426,0.637,0,0.637h-4.654c-0.426,0-0.426-0.637,0-0.637H56.057z   M56.057,63.208c0.426,0,0.426,0.638,0,0.638h-4.654c-0.426,0-0.426-0.638,0-0.638H56.057z M56.057,63.991  c0.426,0,0.426,0.637,0,0.637h-4.654c-0.426,0-0.426-0.638,0-0.638L56.057,63.991L56.057,63.991z M56.057,64.775  c0.426,0,0.426,0.637,0,0.637h-4.654c-0.426,0-0.426-0.637,0-0.637H56.057z M56.057,65.559c0.426,0,0.426,0.637,0,0.637h-4.654  c-0.426,0-0.426-0.637,0-0.637H56.057z M56.057,66.341c0.426,0,0.426,0.64,0,0.64h-4.654c-0.426,0-0.426-0.64,0-0.64H56.057z   M46.266,59.291c0.425,0,0.425,0.637,0,0.637h-4.655c-0.424,0-0.424-0.637,0-0.637H46.266z M46.266,60.075  c0.425,0,0.425,0.637,0,0.637h-4.655c-0.424,0-0.424-0.637,0-0.637H46.266z M46.266,60.857c0.425,0,0.425,0.638,0,0.638h-4.655  c-0.424,0-0.424-0.638,0-0.638H46.266z M46.266,61.641c0.425,0,0.425,0.637,0,0.637h-4.655c-0.424,0-0.424-0.637,0-0.637H46.266z   M46.266,62.424c0.425,0,0.425,0.637,0,0.637h-4.655c-0.424,0-0.424-0.637,0-0.637H46.266z M46.266,63.208  c0.425,0,0.425,0.638,0,0.638h-4.655c-0.424,0-0.424-0.638,0-0.638H46.266z M46.266,63.991c0.425,0,0.425,0.637,0,0.637h-4.655  c-0.424,0-0.424-0.638,0-0.638L46.266,63.991L46.266,63.991z M46.266,64.775c0.425,0,0.425,0.637,0,0.637h-4.655  c-0.424,0-0.424-0.637,0-0.637H46.266z M46.266,65.559c0.425,0,0.425,0.637,0,0.637h-4.655c-0.424,0-0.424-0.637,0-0.637H46.266z   M46.266,66.341c0.425,0,0.425,0.64,0,0.64h-4.655c-0.424,0-0.424-0.64,0-0.64H46.266z M52.57,51.374  c-0.737,0.288-1.496,0.501-2.252,0.626l0.284,3.473h2.905v-4.092h-0.853C52.624,51.382,52.598,51.378,52.57,51.374z M43.524,55.471  v-4.089h-3.103l0.077,1.005h1.493c0.616,0,1.117,0.5,1.117,1.118s-0.498,1.114-1.115,1.114h-1.306l0.064,0.85L43.524,55.471z   M41.879,57.259c-0.057,0.062-0.134,0.091-0.215,0.097l-0.207,0.006v0.51h4.866v-0.512l-0.085-0.002  c-0.104-0.008-0.17-0.039-0.217-0.088c-0.053-0.051-0.088-0.125-0.09-0.221l0.006-0.939l-3.974-0.002v0.932  c-0.001,0.046-0.009,0.087-0.021,0.117c-0.01,0.029-0.023,0.058-0.041,0.078L41.879,57.259z M41.163,53.023l0.08,0.959h0.748  c0.269,0,0.482-0.213,0.482-0.479s-0.217-0.479-0.481-0.479H41.163z M45.1,51.372c-0.027,0.006-0.056,0.01-0.086,0.01h-0.853v4.091  h2.905L47.351,52C46.594,51.873,45.838,51.66,45.1,51.372z M54.145,55.471l2.772-0.002l0.063-0.85h-1.307  c-0.617,0-1.115-0.496-1.115-1.114s0.504-1.118,1.116-1.118h1.494l0.076-1.005h-3.103v4.089H54.145z M56.505,53.023h-0.827  c-0.266,0-0.479,0.215-0.479,0.479s0.213,0.479,0.479,0.479h0.747L56.505,53.023z M55.787,57.259l-0.021-0.024  c-0.016-0.021-0.029-0.049-0.041-0.078c-0.011-0.03-0.019-0.07-0.021-0.117v-0.932l-3.976,0.002l0.006,0.94  c-0.002,0.095-0.036,0.171-0.09,0.22c-0.049,0.051-0.115,0.082-0.217,0.09l-0.087,0.002v0.511h4.867v-0.511L56,57.355  C55.924,57.35,55.844,57.318,55.787,57.259z M45.999,32.08h5.481c0.244-0.247,0.465-0.529,0.651-0.839H45.37  C45.547,31.547,45.756,31.831,45.999,32.08z M59.514,16.791v0.02c0,0.024-0.002,0.047-0.005,0.069  c-0.017,2.642-0.263,5.296-0.651,7.917h0.978v-8.004L59.514,16.791L59.514,16.791z M38.842,24.795  c-0.391-2.619-0.637-5.275-0.652-7.917c-0.004-0.022-0.006-0.044-0.006-0.069v-0.02h-0.31v8.004L38.842,24.795L38.842,24.795z   M51.13,40.488h-4.592l0.588,0.588h1.668h1.748L51.13,40.488z M50.437,51.346l0.064-0.012l0.567-0.129l0.004-8.25h5.459  c0.426,0,0.426-0.636,0-0.636h-5.776c-0.169,0-0.319,0.149-0.319,0.318L50.437,51.346L50.437,51.346z M46.587,51.17l0.064,0.018  l0.568,0.129v-8.678c0-0.169-0.149-0.318-0.318-0.318h-5.777c-0.425,0-0.425,0.636,0,0.636h5.459L46.587,51.17z M54.828,18.359  c-1.288,0-2.334,1.045-2.334,2.333s1.046,2.334,2.334,2.334c1.291,0,2.334-1.045,2.334-2.334S56.119,18.359,54.828,18.359z   M51.124,32.396H46.35c0.629,0.496,1.448,0.795,2.483,0.795C49.708,33.192,50.488,32.897,51.124,32.396z M45.205,30.923h7.104  c0.135-0.264,0.246-0.545,0.336-0.84h-7.758C44.971,30.376,45.077,30.657,45.205,30.923z M52.869,28.927h-8.218  c0.047,0.361,0.093,0.602,0.15,0.839h7.93C52.796,29.497,52.842,29.216,52.869,28.927z M44.75,28.612h8.143  c0.004-0.127,0.006-0.255,0.002-0.383h-0.629c-0.561,0-1.117-0.152-1.556-0.457h-3.718c-0.438,0.304-0.995,0.457-1.556,0.457H44.75  c-0.001,0.068-0.001,0.107,0.005,0.22C44.757,28.506,44.755,28.559,44.75,28.612z M45.883,12.705  c-0.23-0.047-0.449-0.101-0.653-0.159v0.627c0.26,0.079,0.549,0.147,0.861,0.208c-0.086-0.147-0.148-0.31-0.176-0.48L45.883,12.705z   M45.23,12.215c0.186,0.055,0.385,0.107,0.596,0.153l-0.109-0.658c-0.17-0.038-0.333-0.079-0.487-0.124V12.215z M52.465,11.598  c-0.152,0.043-0.316,0.084-0.488,0.122l-0.108,0.656c0.211-0.045,0.411-0.096,0.598-0.15L52.465,11.598L52.465,11.598z   M52.033,11.381c0.148-0.035,0.293-0.074,0.431-0.113V10.64c-0.103,0.029-0.211,0.057-0.321,0.084L52.033,11.381z M45.23,11.256  c0.136,0.042,0.28,0.08,0.43,0.115l-0.109-0.658c-0.11-0.027-0.218-0.056-0.321-0.084V11.256z M52.199,10.38  c0.092-0.022,0.18-0.047,0.265-0.072V9.771L52.293,9.82L52.199,10.38z M45.23,10.296c0.085,0.026,0.173,0.051,0.264,0.075  l-0.09-0.543l-0.173-0.053L45.23,10.296L45.23,10.296z M51.598,13.39c0.314-0.06,0.604-0.128,0.867-0.205v-0.628  c-0.203,0.057-0.422,0.11-0.654,0.156l-0.031,0.186C51.752,13.075,51.688,13.239,51.598,13.39z M52.34,16.427  c-0.415,0.108-0.881,0.198-1.382,0.263h1.118L52.34,16.427z M46.782,16.69c-0.52-0.067-1.006-0.16-1.437-0.277l0.276,0.277H46.782z   M48.289,8.542h1.133c0.704,0,1.273,0.57,1.273,1.274v3.345c0,0.085-0.008,0.168-0.024,0.249c0.239-0.116,0.437-0.349,0.481-0.616  l0.445-2.677c-0.074,0.056-0.125,0.117-0.141,0.185c-0.178,0.759-1.362-0.285,0.109-0.897c1.022-0.425,2.07-0.348,2.07-1.891V5.448  c0-1.583-1.283-2.866-2.865-2.866H46.94c-1.583,0-2.866,1.283-2.866,2.866v2.066c0,2.227,2.477,1.256,2.802,2.643  c0.096,0.414-0.524,0.558-0.621,0.146c-0.021-0.087-0.079-0.156-0.165-0.214l0.452,2.708c0.045,0.272,0.25,0.509,0.498,0.622  c-0.017-0.083-0.025-0.168-0.025-0.256V9.815C47.016,9.112,47.587,8.542,48.289,8.542z M56.927,37.021H40.74l0.066,0.84h16.055  L56.927,37.021z M57.018,35.864h-16.37l0.066,0.839h16.237L57.018,35.864z M57.109,34.708H40.558l0.066,0.84h16.419L57.109,34.708z   M40.896,39.017h15.875l0.064-0.84H40.831L40.896,39.017z M56.746,39.332H40.922l0.036,0.46h4.752c0.143,0,0.202,0.07,0.225,0.093  l0.286,0.287h5.224l0.287-0.287c0.022-0.022,0.101-0.093,0.227-0.093h4.752L56.746,39.332z M43.156,28.229h-1.765  c-0.52,0-0.99-0.122-1.372-0.369l0.059,0.752h3.092c-0.003-0.024-0.005-0.046-0.007-0.071  C43.155,28.381,43.155,28.338,43.156,28.229z M43.277,28.927h-3.173l0.066,0.839h3.331c-0.048-0.229-0.085-0.464-0.115-0.7  C43.344,29.026,43.309,28.98,43.277,28.927z M43.571,30.083h-3.376l0.066,0.84h3.569C43.728,30.652,43.642,30.371,43.571,30.083z   M43.957,31.24h-3.671l0.066,0.839h4.042C44.229,31.815,44.083,31.533,43.957,31.24z M44.606,32.396h-4.23l0.066,0.839h4.92  C45.08,32.985,44.828,32.703,44.606,32.396z M45.761,33.552h-5.294l0.067,0.839h7.333C47.048,34.264,46.347,33.969,45.761,33.552z   M49.767,34.393h7.367l0.065-0.84h-5.366C51.251,33.97,50.561,34.264,49.767,34.393z M52.229,33.236h4.996l0.065-0.839h-4.315  C52.756,32.704,52.508,32.986,52.229,33.236z M53.184,32.08h4.131l0.066-0.839h-3.775C53.484,31.534,53.346,31.815,53.184,32.08z   M53.725,30.923h3.683l0.065-0.84h-3.516C53.898,30.372,53.82,30.653,53.725,30.923z M54.018,29.767h3.479l0.065-0.839h-3.453  C54.094,29.212,54.062,29.493,54.018,29.767z M54.121,28.612h3.468l0.058-0.731c-0.375,0.234-0.832,0.348-1.338,0.348h-2.19  C54.121,28.357,54.121,28.485,54.121,28.612z M49.572,16.487c1.321-0.054,2.458-0.258,3.247-0.54l0.482-0.482  c-0.086-0.067-0.167-0.144-0.242-0.227c-0.858,0.333-2.119,0.558-3.542,0.611C49.531,16.062,49.55,16.274,49.572,16.487z   M49.496,15.531c1.359-0.049,2.547-0.258,3.361-0.557c-0.104-0.165-0.191-0.345-0.256-0.539c-0.834,0.25-1.924,0.415-3.136,0.456  C49.473,15.104,49.482,15.318,49.496,15.531z M49.597,14.568c1.137-0.048,2.152-0.208,2.92-0.44  c-0.035-0.173-0.054-0.354-0.054-0.538v-0.074c-0.356,0.1-0.754,0.184-1.185,0.251c-0.258,0.22-0.586,0.355-0.929,0.355h-0.093  c-0.179,0.155-0.4,0.262-0.645,0.298C49.612,14.472,49.607,14.521,49.597,14.568z M47.397,13.583  c0.143,0.285,0.449,0.489,0.782,0.527c0.037,0.004,0.074,0.006,0.11,0.006h0.048c0,0.107,0,0.144,0.002,0.285l0.001,0.033  c0.003,0.051,0.013,0.099,0.027,0.142c0.042,0.116,0.123,0.198,0.22,0.247l0.002,0.078c0.008,0.213,0.017,0.427,0.028,0.64  c0.006,0.107,0.013,0.212,0.021,0.319c0.015,0.213,0.033,0.428,0.055,0.642l0.021,0.19l0.015,0.129l0.028,0.225l0.029,0.219  c0.306,2.203,1.014,4.351,2.508,6.07c1.161,1.336,1.776,2.846,1.94,4.29l0.01,0.099l0.002,0.021l0.002,0.023l0.002,0.023  l0.002,0.024l0.002,0.024l0.001,0.02c0.011,0.135,0.017,0.252,0.019,0.37c0.004,0.129,0.002,0.257,0,0.383  c-0.004,0.106-0.008,0.211-0.017,0.316c-0.022,0.287-0.063,0.568-0.122,0.84c-0.021,0.107-0.048,0.212-0.076,0.316  c-0.078,0.292-0.178,0.574-0.297,0.84c-0.049,0.107-0.1,0.213-0.154,0.317c-0.16,0.302-0.346,0.583-0.559,0.839  c-0.091,0.11-0.188,0.216-0.289,0.317c-0.354,0.351-0.761,0.635-1.219,0.84c-0.35,0.155-0.727,0.263-1.129,0.316  c-0.189,0.025-0.382,0.038-0.58,0.038c-0.223,0-0.437-0.013-0.642-0.038c-0.442-0.053-0.842-0.161-1.204-0.316  c-0.479-0.205-0.889-0.492-1.237-0.84c-0.1-0.101-0.195-0.207-0.285-0.317c-0.209-0.257-0.39-0.539-0.545-0.839  c-0.053-0.104-0.104-0.209-0.151-0.317c-0.021-0.051-0.044-0.104-0.065-0.156c-0.088-0.221-0.166-0.45-0.231-0.684  c-0.029-0.104-0.056-0.21-0.081-0.316c-0.042-0.179-0.075-0.36-0.104-0.543c-0.017-0.112-0.033-0.225-0.044-0.34  c0.12-0.083,0.202-0.223,0.19-0.418c-0.007-0.122-0.007-0.162-0.006-0.237h-0.956c0,0.101-0.001,0.143,0.008,0.293  c0.013,0.219,0.135,0.356,0.289,0.417c0.013,0.113,0.028,0.228,0.045,0.341c0.024,0.164,0.056,0.327,0.089,0.488  c0.023,0.106,0.049,0.212,0.076,0.316c0.061,0.233,0.132,0.462,0.214,0.684c0.02,0.052,0.041,0.104,0.06,0.156  c0.043,0.107,0.088,0.212,0.136,0.317c0.137,0.296,0.296,0.578,0.478,0.839c0.075,0.108,0.155,0.215,0.238,0.317  c0.259,0.317,0.559,0.602,0.898,0.84c0.165,0.116,0.34,0.222,0.526,0.316c0.644,0.328,1.406,0.516,2.301,0.516  c0.83,0,1.567-0.186,2.2-0.516c0.183-0.094,0.354-0.199,0.518-0.316c0.334-0.237,0.635-0.52,0.896-0.84  c0.084-0.102,0.162-0.208,0.236-0.317c0.182-0.261,0.34-0.542,0.477-0.839c0.047-0.104,0.092-0.209,0.133-0.317  c0.104-0.269,0.191-0.551,0.259-0.84c0.024-0.104,0.046-0.209,0.065-0.316c0.051-0.273,0.086-0.554,0.104-0.84  c0.006-0.105,0.014-0.21,0.016-0.316c0.002-0.127,0.002-0.255-0.002-0.383c-0.004-0.118-0.01-0.235-0.019-0.353  c-0.006-0.083-0.017-0.167-0.022-0.252c-0.174-1.579-0.832-3.213-2.039-4.604c-1.416-1.625-2.089-3.665-2.388-5.756l-0.031-0.228  l-0.028-0.219l-0.015-0.127l-0.02-0.192c-0.022-0.214-0.041-0.427-0.055-0.64c-0.008-0.106-0.015-0.213-0.021-0.319  c-0.013-0.215-0.022-0.427-0.028-0.64l-0.003-0.09c0.087-0.049,0.16-0.126,0.198-0.232c0.015-0.043,0.026-0.092,0.029-0.144  l0.001-0.042c-0.001-0.137-0.001-0.173-0.002-0.276h0.141h0.019c0.367-0.007,0.682-0.22,0.835-0.527  c0.059-0.094,0.015-0.25-0.134-0.25h-1.101V13.06h1.101c0.212,0,0.212-0.319,0-0.319h-1.101v-0.244h1.101  c0.212,0,0.212-0.319,0-0.319h-1.101v-0.245h1.101c0.212,0,0.212-0.319,0-0.319h-1.101V11.37h1.101c0.212,0,0.212-0.319,0-0.319  h-1.101v-0.244h1.101c0.212,0,0.212-0.319,0-0.319h-1.101v-0.244h1.101c0.212,0,0.212-0.319,0-0.319h-1.101v-0.29h1.102  c0.146,0,0.192-0.15,0.138-0.244c-0.158-0.315-0.519-0.533-0.895-0.533h-1.143c-0.375,0-0.699,0.214-0.856,0.527  c-0.059,0.094-0.014,0.25,0.135,0.25h1.088v0.29h-1.09c-0.212,0-0.212,0.319,0,0.319h1.09v0.244h-1.09c-0.212,0-0.212,0.319,0,0.319  h1.09v0.244h-1.09c-0.212,0-0.212,0.319,0,0.319h1.09v0.245h-1.09c-0.212,0-0.212,0.319,0,0.319h1.09v0.245h-1.09  c-0.212,0-0.212,0.319,0,0.319h1.09v0.244h-1.09c-0.212,0-0.212,0.319,0,0.319h1.09v0.278h-1.09  C47.388,13.339,47.342,13.489,47.397,13.583z M48.021,14.404c-0.214-0.043-0.408-0.143-0.566-0.281h-0.11  c-0.346,0-0.678-0.139-0.936-0.363c-0.429-0.068-0.824-0.154-1.177-0.254v0.084c0,0.18-0.018,0.356-0.051,0.527  c0.75,0.23,1.741,0.392,2.856,0.447C48.026,14.515,48.022,14.461,48.021,14.404z M48.172,14.888  c-1.188-0.047-2.259-0.214-3.074-0.463c-0.064,0.194-0.149,0.374-0.253,0.538c0.811,0.303,2.006,0.516,3.374,0.567  c-0.011-0.206-0.021-0.41-0.027-0.616L48.172,14.888z M48.239,15.85c-1.447-0.052-2.729-0.281-3.592-0.623  c-0.078,0.087-0.161,0.167-0.251,0.236l0.464,0.463c0.799,0.295,1.997,0.517,3.433,0.562C48.272,16.278,48.255,16.064,48.239,15.85z   M49.9,26.616h-2.102c-0.083,0.33-0.239,0.61-0.447,0.839h2.993C50.138,27.226,49.982,26.946,49.9,26.616z M49.762,25.459h-1.825  l-0.084,0.84h1.994L49.762,25.459z M49.645,24.303h-1.591l-0.085,0.839h1.761L49.645,24.303z M48.093,23.986h1.511  c-0.088-0.334-0.386-0.583-0.754-0.604C48.48,23.404,48.183,23.654,48.093,23.986z M40.82,58.021v-0.814l0.001-0.036  c0.019-0.243,0.219-0.438,0.466-0.44l0.039-0.002v-0.621l-0.87-0.002c-0.019,0-0.036,0-0.053-0.004  c-0.064-0.011-0.117-0.035-0.159-0.067c-0.048-0.042-0.085-0.103-0.1-0.181c-0.002-0.017-0.004-0.026-0.005-0.043l-0.11-1.479  c-0.008-0.105,0.022-0.188,0.075-0.244c0.053-0.062,0.133-0.104,0.242-0.104h0.259l-0.08-0.959h-0.322  c-0.205,0-0.311-0.146-0.319-0.299l-0.124-1.631c-0.008-0.107,0.023-0.189,0.075-0.246c0.054-0.062,0.134-0.104,0.242-0.104h3.656  c-0.144-0.076-0.286-0.155-0.426-0.234h-3.163c-0.423,0-0.423-0.638,0-0.638h2.165c-0.073-0.053-0.147-0.104-0.219-0.159h-1.946  c-0.423,0-0.423-0.637,0-0.637h1.146c-0.061-0.053-0.121-0.104-0.181-0.159h-0.964c-0.423,0-0.423-0.636,0-0.636h0.306  c-0.306-0.319-0.59-0.651-0.848-0.993c-0.01-0.013-0.063-0.158-0.064-0.176c-0.104-1.875-0.248-4.428-0.331-5.871  c-0.01-0.183,0.135-0.336,0.318-0.336h0.132V40.11c0-0.17,0.148-0.319,0.318-0.319h0.343l-0.972-12.368l-0.035-0.377  c-0.114-0.232-0.195-0.5-0.239-0.804c-0.047-0.27-0.091-0.542-0.133-0.812h-1.764v-9.276h1.05c0.084-0.254,0.299-0.481,0.683-0.613  c1.511-0.52,3.126-0.595,4.707-0.706c0.041-0.002,0.219,0.064,0.247,0.093l0.078,0.078c0.368-0.253,0.653-0.773,0.653-1.418V9.527  c-0.609-0.302-1.153-0.84-1.153-2.016V5.446c0-1.934,1.568-3.503,3.502-3.503h3.831c1.936,0,3.504,1.568,3.504,3.503v2.066  c0,1.18-0.553,1.723-1.174,2.025v4.05c0,0.645,0.283,1.166,0.654,1.419l0.08-0.079c0.227-0.226,2.34,0.071,2.693,0.116  c0.787,0.1,1.533,0.247,2.26,0.496c0.384,0.131,0.6,0.36,0.684,0.613h1.06v9.276H58.76c-0.043,0.273-0.087,0.546-0.134,0.82  c-0.05,0.332-0.144,0.621-0.274,0.868l-0.041,0.457l-0.959,12.216h0.342c0.17,0,0.318,0.148,0.318,0.318v0.795h0.133  c0.183,0,0.328,0.153,0.316,0.336c-0.083,1.443-0.227,3.996-0.331,5.872c-0.001,0.017-0.054,0.161-0.063,0.175  c-0.26,0.342-0.543,0.675-0.849,0.993h0.306c0.424,0,0.424,0.637,0,0.637h-0.965c-0.06,0.055-0.119,0.106-0.18,0.159h1.145  c0.424,0,0.424,0.636,0,0.636H55.58c-0.072,0.055-0.146,0.107-0.221,0.159h2.164c0.426,0,0.426,0.636,0,0.636h-3.158  c-0.141,0.08-0.281,0.159-0.426,0.236h3.651c0.107,0,0.188,0.04,0.242,0.104c0.052,0.059,0.083,0.137,0.074,0.244l-0.125,1.631  c-0.007,0.15-0.111,0.299-0.317,0.299h-0.32l-0.08,0.961h0.26c0.107,0,0.189,0.043,0.242,0.103c0.051,0.06,0.084,0.14,0.074,0.246  l-0.111,1.479c0,0.014-0.002,0.026-0.004,0.043c-0.016,0.078-0.053,0.137-0.102,0.178c-0.042,0.035-0.095,0.062-0.158,0.068  c-0.018,0.006-0.033,0.006-0.054,0.006l-0.871,0.002v0.619l0.039,0.002c0.247,0.004,0.447,0.196,0.466,0.44v0.036v0.812  c-0.007,0.244-0.187,0.469-0.449,0.485h-0.029l-0.285,0.005c0.396,0.025,0.389,0.635-0.027,0.635h-0.449h-1.885h-0.352h-1.521  h-0.449c-0.416,0-0.426-0.605-0.03-0.639h-0.193c-0.249-0.008-0.468-0.217-0.471-0.488V57.18l0.003-0.035  c0.021-0.205,0.188-0.369,0.389-0.412l-0.005-0.627h-0.787c-0.017,0-0.033-0.002-0.05-0.004c-0.073-0.013-0.132-0.041-0.174-0.084  c-0.039-0.037-0.068-0.086-0.083-0.148c-0.004-0.02-0.007-0.038-0.009-0.057l-0.306-3.729c-0.286,0.027-0.569,0.044-0.852,0.046  h-0.034c-0.27-0.004-0.543-0.021-0.817-0.048l-0.305,3.73c-0.001,0.019-0.004,0.037-0.008,0.057  c-0.016,0.062-0.044,0.109-0.083,0.148c-0.043,0.043-0.102,0.071-0.175,0.084c-0.017,0.002-0.035,0.004-0.051,0.004H46.57  l-0.004,0.627c0.202,0.043,0.364,0.207,0.388,0.412l0.002,0.035v0.834c-0.002,0.271-0.222,0.48-0.47,0.487h-0.193  c0.394,0.032,0.384,0.64-0.031,0.64h-0.45h-1.521h-0.35h-1.885h-0.45c-0.415,0-0.424-0.607-0.027-0.635l-0.287-0.005h-0.028  c-0.264-0.017-0.443-0.241-0.45-0.474L40.82,58.021z M53.945,21.571c-0.125-0.125-0.326-0.125-0.451,0l-0.072,0.072  c-0.184-0.271-0.291-0.598-0.291-0.95c0-0.354,0.107-0.685,0.295-0.956l0.073,0.073c0.125,0.125,0.325,0.124,0.45,0  s0.125-0.326,0-0.451l-0.071-0.072c0.271-0.184,0.599-0.291,0.95-0.291c0.354,0,0.686,0.109,0.957,0.296l-0.073,0.073  c-0.125,0.125-0.125,0.326,0,0.451s0.325,0.125,0.45,0l0.072-0.072c0.184,0.271,0.293,0.598,0.293,0.95  c0,0.355-0.109,0.684-0.297,0.958l-0.072-0.074c-0.125-0.125-0.326-0.124-0.451,0c-0.125,0.125-0.125,0.327,0,0.451l0.072,0.072  c-0.271,0.184-0.6,0.29-0.951,0.29c-0.354,0-0.684-0.108-0.955-0.295l0.072-0.073C54.07,21.896,54.068,21.696,53.945,21.571z   M45.932,8.393c-0.352,0-0.638-0.286-0.638-0.637V7.111c0-0.352,0.285-0.636,0.638-0.636h2.033c0.352,0,0.496,0.285,0.323,0.636  l-0.317,0.645c-0.173,0.351-0.599,0.637-0.951,0.637H45.932z M51.764,8.393h-1.086c-0.352,0-0.778-0.286-0.952-0.637l-0.317-0.645  c-0.173-0.352-0.029-0.636,0.322-0.636h2.033c0.353,0,0.639,0.285,0.639,0.636v0.645C52.402,8.106,52.115,8.393,51.764,8.393z"/><text x="0" y="115" fill="#000000" font-size="5px" font-weight="bold" font-family="'Helvetica Neue', Helvetica, Arial-Unicode, Arial, Sans-serif">Created by Simon Child</text><text x="0" y="120" fill="#000000" font-size="5px" font-weight="bold" font-family="'Helvetica Neue', Helvetica, Arial-Unicode, Arial, Sans-serif">from the Noun Project</text></svg>