<svg xmlns="http://www.w3.org/2000/svg" viewBox="0 0 64 80" x="0px" y="0px"><title>cupid-lovely-valentines day-romantic</title><g><path d="M61,18a3,3,0,0,1-3-3,1,1,0,0,0-2,0,3,3,0,0,1-3,3,1,1,0,0,0,0,2,3,3,0,0,1,3,3,1,1,0,0,0,2,0,3,3,0,0,1,3-3,1,1,0,0,0,0-2Zm-4,2a5.017,5.017,0,0,0-1-1,5.017,5.017,0,0,0,1-1,5.017,5.017,0,0,0,1,1A5.017,5.017,0,0,0,57,20Z"/><path d="M6,47a1,1,0,0,0,2,0,3,3,0,0,1,3-3,1,1,0,0,0,0-2,3,3,0,0,1-3-3,1,1,0,0,0-2,0,3,3,0,0,1-3,3,1,1,0,0,0,0,2A3,3,0,0,1,6,47Zm1-5a5.017,5.017,0,0,0,1,1,5.017,5.017,0,0,0-1,1,5.017,5.017,0,0,0-1-1A5.017,5.017,0,0,0,7,42Z"/><rect x="14" y="48" width="2" height="2"/><rect x="14" y="52" width="2" height="2"/><rect x="12" y="50" width="2" height="2"/><rect x="16" y="50" width="2" height="2"/><rect x="48" y="8" width="2" height="2"/><rect x="48" y="12" width="2" height="2"/><rect x="46" y="10" width="2" height="2"/><rect x="50" y="10" width="2" height="2"/><path d="M17.707,10.293l-6-6A1,1,0,0,0,10.02,4.8L9.15,9.15,4.8,10.02a1,1,0,0,0-.511,1.687l6,6A1,1,0,0,0,11,18h2.758l2.61,2.61c-.271.21-.536.427-.786.658a10.689,10.689,0,0,0,0,15.968L32,52.359l8.39-7.727,6.282,6.282-1.379,1.379a1,1,0,0,0,.288,1.615l13,6a1,1,0,0,0,1.327-1.327l-6-13a1,1,0,0,0-1.615-.288l-1.379,1.379-6.108-6.108,3.612-3.328a10.689,10.689,0,0,0,0-15.968A12.871,12.871,0,0,0,32,20.689a12.828,12.828,0,0,0-9.625-2.556L18,13.758V11A1,1,0,0,0,17.707,10.293ZM7.028,11.614,10.2,10.98a1,1,0,0,0,.784-.784l.634-3.168L16,11.414V16H11.414ZM52.693,47.722l4.262,9.233-9.233-4.262ZM48.086,49.5,39.5,40.914,40.914,39.5,49.5,48.086ZM31.322,22.738l.678.624.678-.624a10.812,10.812,0,0,1,14.384,0,8.69,8.69,0,0,1,0,13.028l-3.671,3.382-1.77-1.769a1,1,0,0,0-1.414,0l-2.828,2.828a1,1,0,0,0,0,1.414l1.595,1.595L32,49.641,16.937,35.766a8.692,8.692,0,0,1,0-13.028,10.043,10.043,0,0,1,.86-.7l3.582,3.582a1,1,0,0,0,1.414,0l2.828-2.828a1,1,0,0,0,0-1.414L24.26,20.018A10.61,10.61,0,0,1,31.322,22.738ZM23.5,22.086,22.086,23.5l-5.5-5.5H17a1,1,0,0,0,1-1v-.414Z"/></g><text x="0" y="79" fill="#000000" font-size="5px" font-weight="bold" font-family="'Helvetica Neue', Helvetica, Arial-Unicode, Arial, Sans-serif">Created by Smalllike</text><text x="0" y="84" fill="#000000" font-size="5px" font-weight="bold" font-family="'Helvetica Neue', Helvetica, Arial-Unicode, Arial, Sans-serif">from the Noun Project</text></svg>