<svg xmlns="http://www.w3.org/2000/svg" viewBox="0 0 60 75" x="0px" y="0px"><title>025 - Scissors</title><g data-name="Outer Lines"><path d="M45,34a12.929,12.929,0,0,0-4.977.994L37.29,31.28l12.743-16.9A10.019,10.019,0,0,0,48.052.457C48.025.434,48,.412,47.971.392a2.01,2.01,0,0,0-2.806.423L30,21.394,14.837.817A2.008,2.008,0,0,0,12.029.392c-.021.015-.046.036-.071.058A10.02,10.02,0,0,0,9.971,14.382l12.744,16.9-2.738,3.715A13.052,13.052,0,1,0,26.3,40.6l1.482-1.784a1.2,1.2,0,0,1,1.047-.435,1.1,1.1,0,0,1,.3.06,3.368,3.368,0,0,0,2.311-.111.685.685,0,0,0,.085-.034l2.157,2.337A12.992,12.992,0,1,0,45,34ZM11.572,13.183A8.014,8.014,0,0,1,13.2,2.019L13.224,2,28.758,23.079l-4.8,6.52ZM15,58A11,11,0,1,1,26,47,11.013,11.013,0,0,1,15,58ZM30.192,36.608a1.483,1.483,0,0,0-.151-.017,1.069,1.069,0,0,1-.283-.049,3.064,3.064,0,0,0-.817-.159,3.183,3.183,0,0,0-2.7,1.158l-1.108,1.334a13.088,13.088,0,0,0-3.356-2.948L46.786,2.008l.015.011a8.012,8.012,0,0,1,1.631,11.158L31.165,36.083a1.477,1.477,0,0,1-.156.168L31,36.256c-.005.005-.007.011-.012.016a1.2,1.2,0,0,1-.24.175l-.049.021A1.518,1.518,0,0,1,30.192,36.608Zm2.818.349,3.023-4.009,2.192,2.978a13.084,13.084,0,0,0-3.4,3ZM45,58A11,11,0,1,1,56,47,11.013,11.013,0,0,1,45,58Z"/><path d="M31,32V31a1,1,0,0,0-2,0v1a1,1,0,0,0,2,0Z"/><path d="M20.9,43.1a1,1,0,0,0-.473,1.332A5.929,5.929,0,0,1,21,47a6,6,0,1,1-2.915-5.144,1,1,0,1,0,1.033-1.712,7.994,7.994,0,1,0,3.109,3.426A1,1,0,0,0,20.9,43.1Z"/><path d="M50.9,43.1a1,1,0,0,0-.473,1.332A5.929,5.929,0,0,1,51,47a6,6,0,1,1-2.915-5.144,1,1,0,1,0,1.033-1.712,7.994,7.994,0,1,0,3.109,3.426A1,1,0,0,0,50.9,43.1Z"/></g><text x="0" y="75" fill="#000000" font-size="5px" font-weight="bold" font-family="'Helvetica Neue', Helvetica, Arial-Unicode, Arial, Sans-serif">Created by Juicy Fish</text><text x="0" y="80" fill="#000000" font-size="5px" font-weight="bold" font-family="'Helvetica Neue', Helvetica, Arial-Unicode, Arial, Sans-serif">from the Noun Project</text></svg>