<svg width="73" height="108" viewBox="0 0 73 108" fill="none" xmlns="http://www.w3.org/2000/svg">
<path d="M42.1905 62.8715C39.1981 65.8663 43.6867 70.3586 46.6791 67.3638L49.9891 64.051L53.2992 67.3638C56.2916 70.3586 60.7802 65.8663 57.7878 62.8715L54.4777 59.5588L57.7878 56.2461C60.7802 53.2513 56.2916 48.7591 53.2992 51.7539L49.9891 55.0666L46.6791 51.7539C43.6867 48.7591 39.1981 53.2513 42.1905 56.2461L45.5005 59.5588L42.1905 62.8715ZM15.2122 62.8715C12.2198 65.8663 16.7084 70.3586 19.7008 67.3638L23.0109 64.051L26.3209 67.3638C29.3133 70.3586 33.8019 65.8663 30.8095 62.8715L27.4995 59.5588L30.8095 56.2461C33.8019 53.2513 29.3133 48.7591 26.3209 51.7539L23.0109 55.0666L19.7008 51.7539C16.7084 48.7591 12.2198 53.2513 15.2122 56.2461L18.5223 59.5588L15.2122 62.8715ZM36.5 108C16.3416 108 0 91.6452 0 71.4706C0 51.296 16.3416 34.9412 36.5 34.9412C56.6584 34.9412 73 51.296 73 71.4706C73 91.6452 56.6584 108 36.5 108ZM16.0354 92.6916C15.4762 94.3542 16.3696 96.1558 18.0309 96.7155C19.6922 97.2752 21.4923 96.3811 22.0515 94.7184C23.5882 90.15 29.5602 85.7638 36.5 85.7638C43.4398 85.7638 49.4118 90.15 50.9485 94.7184C51.5077 96.3811 53.3078 97.2752 54.9691 96.7155C56.6304 96.1558 57.5238 94.3542 56.9646 92.6916C54.5664 85.5621 46.1912 79.4109 36.5 79.4109C26.8088 79.4109 18.4336 85.5621 16.0354 92.6916ZM36.5 31.7647C27.7355 31.7647 20.6304 24.6539 20.6304 15.8824C20.6304 7.11077 27.7355 0 36.5 0C45.2645 0 52.3696 7.11077 52.3696 15.8824C52.3696 24.6539 45.2645 31.7647 36.5 31.7647Z" fill="black"/>
</svg>
