<svg width="95" height="95" viewBox="0 0 95 95" fill="none" xmlns="http://www.w3.org/2000/svg">
<path d="M92.9802 61.6718C92.9742 61.6514 92.9819 61.6299 92.9752 61.6096L83.3969 32.3926L92.9711 3.90153C93.0749 3.59091 93.1035 3.26006 93.0544 2.93624C93.0053 2.61242 92.88 2.3049 92.6887 2.03901C92.4975 1.77313 92.2458 1.55648 91.9544 1.40693C91.663 1.25738 91.3403 1.1792 91.0128 1.17883H12.4155C11.9803 1.1788 11.5562 1.31627 11.2038 1.57162C10.8514 1.82697 10.5887 2.18713 10.4531 2.60069L0.780507 32.1047C0.773816 32.125 0.781519 32.1465 0.775468 32.1669C0.691214 32.4454 0.667491 32.7386 0.705891 33.027C0.710414 33.0606 0.719873 33.0906 0.726048 33.124C0.738876 33.2191 0.75842 33.3132 0.784534 33.4055L10.3587 61.8974L0.780507 91.1136C0.678834 91.4237 0.652109 91.7535 0.702522 92.076C0.752935 92.3984 0.879051 92.7044 1.07053 92.9686C1.26201 93.2329 1.5134 93.4481 1.8041 93.5965C2.09479 93.7448 2.41651 93.8222 2.74288 93.8222H81.0981C81.5308 93.8222 81.9527 93.6864 82.304 93.4338C82.6554 93.1812 82.9186 92.8247 83.0564 92.4145L92.9711 62.9105C92.9973 62.8181 93.0169 62.7239 93.0297 62.6288C93.0359 62.5955 93.0452 62.5656 93.0497 62.5321C93.0881 62.2436 93.0644 61.9503 92.9802 61.6718V61.6718ZM13.912 5.30927H88.1408L79.6137 30.6828H5.59261L13.912 5.30927ZM79.8436 34.8132L88.163 60.1878H14.1419L5.61481 34.8132H79.8436ZM79.6137 89.6918H5.59261L13.912 64.3182H88.1408L79.6137 89.6918Z" fill="black"/>
</svg>
