<svg width="119" height="84" viewBox="0 0 119 84" fill="none" xmlns="http://www.w3.org/2000/svg">
<path d="M116.461 30.2717C114.491 28.9417 112.68 27.3888 111.067 25.6438C108.671 23.1079 106.529 20.366 104.228 17.7192C99.9751 12.7242 95.3671 8.04189 90.44 3.70868C89.5364 2.87796 88.4553 2.26358 87.2787 1.9121C86.1022 1.56061 84.8609 1.48124 83.6491 1.68C80.206 2.18717 76.7471 2.56755 73.2881 2.91623C60.6149 3.9452 48.242 7.30906 36.7948 12.8377C33.789 14.3594 31.016 16.302 28.56 18.6068C25.9103 21.0792 23.3081 23.6151 20.8171 26.246C14.1324 33.0859 8.38606 40.7818 3.72868 49.1321C2.71321 51.0498 1.98335 53.0943 0.952012 54.9645C-0.364921 57.4053 -0.412521 58.1343 1.42801 60.3215C5.22015 64.7434 8.99641 69.1811 12.9472 73.4604C14.2521 74.873 15.4607 76.3715 16.5648 77.9457C16.8149 78.3471 17.1631 78.6785 17.5767 78.9086C17.9902 79.1387 18.4556 79.26 18.9289 79.2611C21.5787 79.4355 24.2284 79.7683 26.8623 79.9585C35.0495 80.5291 43.2525 81.0521 50.3449 81.5434C57.0883 81.5434 62.7209 81.5434 68.3536 81.5434C74.2719 81.6385 80.0791 83.1283 86.0291 82.9857C86.3294 83.0022 86.6272 83.05 86.9176 83.1283C87.4193 83.2669 87.9461 83.2889 88.4576 83.1928C88.9691 83.0966 89.4519 82.8848 89.8688 82.5736C90.3039 82.2971 90.7733 82.0787 91.2651 81.9238C96.4693 79.8 101.674 77.6921 106.878 75.5842C108.071 74.9798 109.3 74.4505 110.559 73.9992C111.42 73.7919 112.2 73.333 112.8 72.6809C113.399 72.0288 113.79 71.2132 113.923 70.3381C115.731 63.5443 117.03 56.6256 117.81 49.6392C118.397 44.726 118.556 39.7653 118.873 34.8362C118.954 33.9242 118.769 33.0083 118.341 32.1986C117.913 31.3889 117.261 30.7198 116.461 30.2717V30.2717ZM32.1617 20.2075C32.1079 20.7008 32.0123 21.1885 31.8761 21.6657C31.2415 23.0921 30.5275 24.4709 29.9404 25.8974C29.7932 26.3528 29.5252 26.7599 29.1647 27.0753C28.8043 27.3907 28.365 27.6025 27.8936 27.6883C26.6719 27.9419 25.4819 28.2747 24.2443 28.5759L32.1617 20.2075ZM22.7369 30.9374C24.3896 30.647 26.026 30.2714 27.6397 29.8121L27.8143 30.3668L19.2939 33.8219C20.1665 31.9675 21.0868 31.1275 22.7369 30.9374V30.9374ZM19.7223 35.6921C22.1952 34.9645 24.6175 34.075 26.9733 33.0294C27.1008 33.7504 26.9745 34.4932 26.6158 35.1317C26.2572 35.7702 25.6883 36.265 25.0059 36.5321C21.4676 38.117 18.0087 40.0189 14.518 41.7623C13.9468 42.0317 13.3439 42.2219 12.2808 42.634C14.3752 39.4008 15.9936 36.4528 19.7223 35.6287V35.6921ZM12.5188 44.5834C16.1047 43.2204 19.5319 41.4136 23.0225 39.8287L25.3867 38.6875C25.3867 39.9396 25.3867 40.9223 25.3867 41.8574C25.3867 42.7925 24.6409 42.8559 24.0221 43.0777C21.5945 43.9653 19.1511 44.8053 16.7393 45.7404C14.3276 46.6755 12.376 47.5789 10.2023 48.4823C9.59934 48.72 8.99641 48.926 8.02854 49.2747C8.3222 48.1789 8.88752 47.1747 9.67231 46.3547C10.4571 45.5348 11.4361 44.9256 12.5188 44.5834V44.5834ZM7.12414 51.557C12.852 49.4332 18.6116 47.357 24.3395 45.2174C25.0001 44.9004 25.7555 44.8417 26.4572 45.0528C27.159 45.264 27.7562 45.7297 28.1316 46.3585C24.5414 47.9113 20.8259 49.1572 17.0249 50.083C13.3597 51.1766 9.71041 52.3019 5.80721 53.4906C5.78253 53.0683 5.89828 52.6498 6.13647 52.3001C6.37465 51.9503 6.72189 51.6891 7.12414 51.557V51.557ZM4.07775 56.8664C4.82795 56.3317 5.62444 55.8649 6.45774 55.4717C8.67908 54.6476 10.9163 53.8868 13.1693 53.2053L29.6389 48.0226C31.2256 47.5313 31.2256 47.5313 32.8123 49.0053C31.3208 49.4491 29.9404 49.9404 28.5283 50.2891C21.545 51.9627 14.8126 54.5471 8.50454 57.9759L7.71121 58.3721C5.55334 59.4023 5.44228 59.3706 4.07775 56.8664ZM7.25108 60.7811C7.64774 60.5275 8.04441 60.2581 8.47281 60.0204C16.7552 55.6143 25.7357 53.1577 34.7004 50.606C36.2871 50.1623 36.9535 51.1766 37.8737 52.08C37.6106 52.2724 37.335 52.4471 37.0487 52.603C33.1455 54.1879 29.2581 55.7728 25.3073 57.2309C21.9119 58.4513 18.4212 59.434 14.9623 60.4008C13.1852 60.9238 11.3605 61.2566 9.59934 61.7796C9.38351 61.8813 9.14849 61.936 8.90988 61.94C8.67127 61.944 8.43455 61.8972 8.21543 61.8027C7.99632 61.7083 7.79984 61.5683 7.63904 61.3922C7.47824 61.2161 7.35681 61.0078 7.28281 60.7811H7.25108ZM12.0111 66.5026L9.82148 63.9668C10.7735 63.6974 11.4081 63.4438 12.1221 63.317C18.5863 62.0968 24.8821 60.1123 30.8765 57.4053C33.4311 56.2483 36.1284 55.4242 38.8099 54.5208C39.4287 54.2989 40.1744 53.8234 41.0153 54.806C37.8167 56.6576 34.4548 58.212 30.9717 59.4498C26.5132 60.7336 22.1023 62.2234 17.7231 63.7766C15.7729 64.609 13.8665 65.54 12.0111 66.566V66.5026ZM34.1133 76.9472C33.357 76.8944 32.6105 76.7452 31.892 76.5034C33.8866 75.2408 36.0807 74.3244 38.3815 73.7932C37.0963 77.0423 36.8741 77.1849 34.1133 76.9472ZM39.0955 71.0989C35.3192 72.5728 31.5747 74.1419 27.8301 75.6634C25.0693 76.7728 22.2927 76.0121 19.5319 75.6634C19.2621 75.6634 19.04 75.0453 18.5005 74.3321L40.7139 68.7374C40.7428 69.2542 40.5997 69.7661 40.307 70.1932C40.0143 70.6204 39.5883 70.9388 39.0955 71.0989V71.0989ZM40.5235 66.3442C40.1964 66.4912 39.8565 66.6079 39.508 66.6928C35.2875 67.7864 31.0669 68.9276 26.8147 70.1162C23.8317 70.9404 20.8964 71.8913 17.612 72.8898L15.8667 70.6868C16.5648 70.4332 17.0091 70.2589 17.4533 70.1162C19.278 69.4981 21.1344 68.9751 22.9115 68.2619C29.0282 65.8052 35.2917 63.7303 41.6659 62.0491C42.0943 61.9223 42.5068 61.7796 42.9193 61.6211L44.0776 61.1774C44.0776 61.1774 44.0776 61.1774 44.0776 61.0823C44.1065 60.7765 44.1065 60.4688 44.0776 60.163C43.9507 59.4023 43.554 59.3072 42.4909 59.5608C40.3331 60.1155 38.1752 60.6702 36.1443 61.3993C30.7655 63.2694 25.4343 65.2506 20.0872 67.1683C18.6275 67.6913 17.1677 68.2302 15.6763 68.7532C15.0257 68.9593 14.2165 69.3079 13.6612 68.0876C14.299 67.6685 14.9673 67.2976 15.6604 66.9781C19.8809 65.3932 24.038 63.5864 28.3537 62.4611C32.9944 61.2063 37.4647 59.3914 41.6659 57.0566L42.6496 56.5336C43.3953 57.4053 44.2363 58.2453 44.8868 59.1804C45.0373 59.3781 45.1453 59.6047 45.2041 59.846C45.3469 60.4483 44.9661 60.8921 44.1411 61.114H44.0617C43.9663 62.2104 43.5908 63.264 42.9714 64.1742C42.3519 65.0843 41.5091 65.8205 40.5235 66.3125V66.3442ZM113.875 52.08C113.113 57.4053 111.828 62.6672 110.813 67.9291C110.716 68.5395 110.449 69.1104 110.042 69.5758C109.635 70.0413 109.105 70.3825 108.512 70.56C104.26 72.2559 100.119 74.2845 95.8188 75.9487C92.8948 77.1838 89.8544 78.1235 86.7431 78.754C84.1699 79.0918 81.5609 79.0491 79.0001 78.6272C73.4296 77.835 67.8081 77.4536 62.1815 77.486C56.644 77.486 51.0748 77.486 45.5373 77.486C44.6647 77.486 43.792 77.3434 42.4433 77.2325C43.3953 74.9502 44.1569 73.0325 45.0137 71.1781C45.9975 69.0226 47.124 66.9306 48.1871 64.8385C49.0575 63.3151 49.406 61.5496 49.1798 59.8102C48.9535 58.0708 48.1648 56.4529 46.9336 55.2023C43.8614 51.5715 40.2301 48.4525 36.176 45.9623L30.6227 42.7925C29.942 42.5009 29.3909 41.9716 29.0726 41.3036C28.7543 40.6356 28.6905 39.8746 28.8932 39.163C29.5827 35.2351 30.8274 31.4249 32.5901 27.8468C33.6792 25.6 34.5506 23.2542 35.1923 20.8415C35.5643 19.583 36.2258 18.4288 37.1239 17.4712C38.022 16.5135 39.1319 15.7789 40.3648 15.326C50.4481 10.8288 61.1992 8.00749 72.1933 6.97358C76.0172 6.52981 79.8569 6.16528 83.6649 5.65811C84.4627 5.49132 85.2893 5.52259 86.0722 5.74917C86.855 5.97576 87.5703 6.39074 88.1552 6.95774C92.344 11.0943 96.5963 15.2468 100.674 19.526C103.371 22.363 105.72 25.5328 108.385 28.4015C110.103 30.2285 111.965 31.914 113.954 33.4415C114.42 33.7283 114.796 34.1409 115.037 34.6316C115.279 35.1224 115.376 35.6713 115.319 36.2151C114.843 41.5087 114.621 46.834 113.875 52.0959V52.08Z" fill="black"/>
</svg>
