<svg width="90" height="95" viewBox="0 0 90 95" fill="none" xmlns="http://www.w3.org/2000/svg">
<path d="M68.2759 52.9508C65.6249 52.9497 63 53.4758 60.5529 54.4989L56.3121 48.7148L76.0857 22.3951C78.5131 19.0998 79.5513 14.9784 78.9762 10.9212C78.401 6.86395 76.2586 3.19672 73.0117 0.711724C72.9698 0.675904 72.931 0.641642 72.886 0.610494C72.2211 0.119753 71.3895 -0.086468 70.5733 0.0370108C69.7572 0.16049 69.0231 0.603599 68.5319 1.26926L45 33.3185L21.4712 1.27238C21.2284 0.941748 20.9231 0.662353 20.5728 0.450149C20.2224 0.237946 19.8338 0.0970902 19.4292 0.035627C19.0246 -0.0258362 18.6118 -0.00670322 18.2146 0.0919333C17.8173 0.19057 17.4433 0.366778 17.114 0.610494C17.0814 0.633855 17.0426 0.66656 17.0038 0.700822C13.7518 3.18499 11.6051 6.85427 11.0281 10.9148C10.4511 14.9754 11.4902 19.1007 13.9205 22.3982L33.6957 48.7179L29.4471 54.5035C25.0218 52.6491 20.0845 52.4309 15.5139 53.8875C10.9434 55.3442 7.03607 58.3813 4.48751 62.4583C1.93894 66.5353 0.914471 71.3877 1.59643 76.1517C2.27839 80.9158 4.62254 85.2824 8.21164 88.4744C11.8007 91.6664 16.4019 93.4767 21.1962 93.583C25.9906 93.6893 30.6669 92.0848 34.393 89.0551C38.1191 86.0253 40.6532 81.7669 41.5442 77.0377C42.4351 72.3086 41.6252 67.4155 39.2586 63.2295L41.5583 60.4512C41.7525 60.2126 42.0024 60.0259 42.2859 59.9077C42.5693 59.7895 42.8775 59.7435 43.1829 59.7737C43.3417 59.7829 43.4984 59.8144 43.6484 59.8671C44.8266 60.2363 46.097 60.1751 47.2345 59.6943C47.2796 59.6796 47.3236 59.6619 47.3664 59.6413L50.7134 63.2809C48.546 67.1565 47.7103 71.6405 48.3354 76.0403C48.9604 80.4401 51.0115 84.511 54.1717 87.6242C57.332 90.7374 61.4256 92.7197 65.8204 93.2649C70.2151 93.8101 74.6665 92.8879 78.4869 90.6407C82.3073 88.3936 85.2843 84.9465 86.958 80.8319C88.6318 76.7172 88.9091 72.164 87.7472 67.8753C86.5853 63.5867 84.0489 59.8014 80.5296 57.1039C77.0103 54.4064 72.704 52.9469 68.2759 52.9508V52.9508ZM16.4048 20.5309C14.4572 17.8839 13.63 14.572 14.1031 11.3159C14.5762 8.05978 16.3113 5.12293 18.931 3.14435L18.9683 3.11476L43.0727 35.9427L35.6245 46.0968L16.4048 20.5309ZM21.7241 90.3279C18.3482 90.3279 15.0481 89.3231 12.2411 87.4408C9.43414 85.5584 7.24637 82.8828 5.95446 79.7525C4.66255 76.6222 4.32453 73.1777 4.98314 69.8546C5.64175 66.5315 7.26741 63.479 9.65455 61.0832C12.0417 58.6873 15.0831 57.0558 18.3941 56.3947C21.7052 55.7337 25.1372 56.073 28.2561 57.3696C31.3751 58.6662 34.0409 60.862 35.9165 63.6792C37.792 66.4964 38.7931 69.8085 38.7931 73.1967C38.7878 77.7385 36.9877 82.0928 33.7878 85.3044C30.5879 88.5159 26.2495 90.3225 21.7241 90.3279V90.3279ZM45.2979 57.0125C45.2203 56.9996 45.1421 56.9908 45.0636 56.986C44.9145 56.9805 44.7668 56.9548 44.6245 56.9097C44.2151 56.7696 43.7886 56.6863 43.3567 56.6621C42.5654 56.6028 41.7715 56.7357 41.0422 57.0496C40.3129 57.3636 39.6697 57.8492 39.1671 58.4655L37.4478 60.543C35.9868 58.7245 34.2253 57.1715 32.2402 55.9519L71.0472 3.12722L71.0705 3.14435C73.6889 5.12155 75.4237 8.05631 75.8977 11.3104C76.3716 14.5645 75.5464 17.8749 73.6014 20.5216L46.8078 56.1948C46.7339 56.2882 46.653 56.3757 46.5657 56.4565L46.5517 56.4643C46.544 56.4721 46.5409 56.4814 46.5331 56.4892C46.4207 56.5952 46.2956 56.6867 46.1607 56.7617L46.0846 56.7944C45.837 56.9125 45.5708 56.9863 45.2979 57.0125V57.0125ZM49.6707 57.556L54.3615 51.3125L57.7629 55.9503C55.7468 57.1877 53.9613 58.7688 52.4871 60.6225L49.6707 57.556ZM68.2759 90.3279C64.8999 90.3279 61.5998 89.3231 58.7928 87.4408C55.9859 85.5584 53.7981 82.8828 52.5062 79.7525C51.2143 76.6222 50.8762 73.1777 51.5349 69.8546C52.1935 66.5315 53.8191 63.479 56.2063 61.0832C58.5934 58.6873 61.6348 57.0558 64.9459 56.3947C68.2569 55.7337 71.6889 56.073 74.8079 57.3696C77.9268 58.6662 80.5926 60.862 82.4682 63.6792C84.3437 66.4964 85.3448 69.8085 85.3448 73.1967C85.3395 77.7385 83.5394 82.0928 80.3395 85.3044C77.1396 88.5159 72.8012 90.3225 68.2759 90.3279V90.3279Z" fill="black"/>
<path d="M46.5517 49.8361V48.2787C46.5517 47.8656 46.3882 47.4695 46.0972 47.1775C45.8062 46.8854 45.4115 46.7213 45 46.7213C44.5885 46.7213 44.1938 46.8854 43.9028 47.1775C43.6118 47.4695 43.4483 47.8656 43.4483 48.2787V49.8361C43.4483 50.2491 43.6118 50.6452 43.9028 50.9373C44.1938 51.2294 44.5885 51.3934 45 51.3934C45.4115 51.3934 45.8062 51.2294 46.0972 50.9373C46.3882 50.6452 46.5517 50.2491 46.5517 49.8361Z" fill="black"/>
<path d="M30.8793 67.1229C30.508 67.3005 30.2222 67.6187 30.0846 68.0077C29.9469 68.3967 29.9688 68.8246 30.1453 69.1974C30.7364 70.4468 31.0403 71.8136 31.0345 73.1967C31.0352 75.2604 30.3552 77.2663 29.1006 78.9014C27.846 80.5364 26.0874 81.7087 24.0993 82.2351C22.1111 82.7616 20.0052 82.6127 18.1102 81.8116C16.2152 81.0106 14.6377 79.6024 13.624 77.807C12.6102 76.0115 12.2172 73.9297 12.5062 71.8865C12.7953 69.8433 13.7501 67.9536 15.2218 66.5123C16.6934 65.071 18.5991 64.1592 20.6413 63.9192C22.6836 63.6792 24.7476 64.1245 26.5112 65.1856C26.6857 65.2966 26.8806 65.3716 27.0844 65.406C27.2882 65.4405 27.4968 65.4337 27.698 65.3862C27.8992 65.3386 28.0888 65.2512 28.2559 65.129C28.4229 65.0069 28.564 64.8525 28.6707 64.6749C28.7775 64.4973 28.8478 64.3001 28.8776 64.0948C28.9074 63.8895 28.8961 63.6804 28.8442 63.4796C28.7924 63.2788 28.7011 63.0904 28.5757 62.9255C28.4503 62.7606 28.2934 62.6225 28.1141 62.5193C25.5625 60.9832 22.5456 60.4187 19.6139 60.929C16.6821 61.4392 14.0308 62.9902 12.1434 65.2989C10.2561 67.6077 9.25852 70.5204 9.33267 73.5058C9.40681 76.4912 10.5477 79.3505 12.5473 81.562C14.5469 83.7735 17.272 85.1899 20.2254 85.5529C23.1789 85.9159 26.1639 85.2014 28.6362 83.5395C31.1084 81.8776 32.9031 79.3793 33.6929 76.5C34.4826 73.6208 34.2149 70.5525 32.9384 67.8549C32.7607 67.4851 32.4446 67.2007 32.0589 67.0637C31.6733 66.9266 31.2493 66.9479 30.8793 67.1229V67.1229Z" fill="black"/>
<path d="M77.431 67.1229C77.0598 67.3005 76.7739 67.6187 76.6363 68.0077C76.4987 68.3967 76.5205 68.8246 76.6971 69.1974C77.2881 70.4468 77.592 71.8136 77.5862 73.1967C77.5869 75.2604 76.9069 77.2663 75.6524 78.9014C74.3978 80.5364 72.6392 81.7087 70.651 82.2351C68.6628 82.7616 66.5569 82.6127 64.6619 81.8116C62.7669 81.0106 61.1895 79.6024 60.1757 77.807C59.1619 76.0115 58.7689 73.9297 59.058 71.8865C59.347 69.8433 60.3019 67.9536 61.7735 66.5123C63.2452 65.071 65.1508 64.1592 67.1931 63.9192C69.2353 63.6792 71.2993 64.1245 73.0629 65.1856C73.2375 65.2966 73.4324 65.3716 73.6362 65.406C73.84 65.4405 74.0486 65.4337 74.2497 65.3862C74.4509 65.3386 74.6406 65.2512 74.8076 65.129C74.9746 65.0069 75.1157 64.8525 75.2225 64.6749C75.3292 64.4973 75.3996 64.3001 75.4294 64.0948C75.4592 63.8895 75.4478 63.6804 75.396 63.4796C75.3441 63.2788 75.2528 63.0904 75.1274 62.9255C75.0021 62.7606 74.8451 62.6225 74.6659 62.5193C72.1142 60.9832 69.0974 60.4187 66.1656 60.929C63.2338 61.4392 60.5825 62.9902 58.6952 65.2989C56.8078 67.6077 55.8102 70.5204 55.8844 73.5058C55.9585 76.4912 57.0995 79.3505 59.0991 81.562C61.0987 83.7735 63.8237 85.1899 66.7771 85.5529C69.7306 85.9159 72.7157 85.2014 75.1879 83.5395C77.6601 81.8776 79.4548 79.3793 80.2446 76.5C81.0344 73.6208 80.7666 70.5525 79.4902 67.8549C79.3124 67.4851 78.9963 67.2007 78.6107 67.0637C78.225 66.9266 77.8011 66.9479 77.431 67.1229Z" fill="black"/>
</svg>
